# Blender 4.4.3
# www.blender.org
mtllib placeholder_ship_pear_glass.mtl
o ship_Pear_Glass
v -0.748331 0.473205 0.073205
v -0.737112 0.435300 0.203225
v -0.702377 0.391485 0.333747
v -0.640312 0.341131 0.503633
v -0.640312 0.658347 -0.141131
v -0.668954 0.638509 -0.014474
v -0.678233 0.609808 0.109808
v -0.668954 0.572523 0.231790
v -0.640312 0.526375 0.351440
v -0.589491 0.470416 0.496159
v -0.419821 0.149994 0.952896
v -0.279881 0.140008 1.094407
v -0.139940 0.134553 1.157614
v 0.000000 0.132808 1.169296
v -0.541603 0.282894 0.721637
v -0.406202 0.280539 0.912396
v -0.270801 0.279785 1.032805
v -0.135401 0.279566 1.091300
v 0.000000 0.279523 1.101423
v -0.509902 0.402634 0.684884
v -0.382426 0.416824 0.827937
v -0.254951 0.426636 0.918611
v -0.127475 0.432378 0.962993
v 0.000000 0.434268 0.970418
v 0.000000 0.964930 -0.234268
v -0.127475 0.954818 -0.232378
v -0.254951 0.923627 -0.226636
v -0.382426 0.868384 -0.216824
v -0.509902 0.782185 -0.202634
v 0.000000 0.996038 -0.079523
v -0.135401 0.984434 -0.079566
v -0.270801 0.948533 -0.079785
v -0.406202 0.884480 -0.080539
v -0.541603 0.782920 -0.082894
v 0.000000 0.997173 0.067192
v -0.139940 0.984942 0.065447
v -0.279881 0.947039 0.059991
v -0.419821 0.879153 0.050006
v -0.559762 0.770574 0.033342
v 0.000000 0.972741 0.207055
v -0.141421 0.960571 0.203794
v -0.282843 0.922833 0.193682
v -0.424264 0.855123 0.175540
v -0.565685 0.746410 0.146410
v 0.000000 0.923968 0.340397
v -0.139940 0.912503 0.335792
v -0.279881 0.876951 0.321565
v -0.419821 0.813167 0.296270
v -0.559762 0.710803 0.256413
v 0.000000 0.849628 0.466887
v -0.135401 0.839557 0.461123
v -0.270801 0.808356 0.443362
v -0.406202 0.752508 0.411989
v -0.541603 0.663376 0.363248
v 0.000000 0.745315 0.597231
v -0.127475 0.737503 0.592918
v -0.254951 0.713362 0.573652
v -0.382426 0.670426 0.536114
v -0.509902 0.602870 0.476333
v 0.000000 0.600000 0.782561
v -0.115470 0.595811 0.778852
v -0.230940 0.582971 0.754697
v -0.346410 0.560555 0.704670
v -0.461880 0.526599 0.625046
v -0.719796 0.539208 -0.047202
v -0.719250 0.326810 0.322504
v -0.748292 0.395207 0.193865
v -0.660200 0.253186 0.499444
v -0.556807 0.185571 0.733092
v 0.748331 0.473205 0.073205
v 0.737112 0.435300 0.203225
v 0.702377 0.391485 0.333747
v 0.640312 0.341131 0.503633
v 0.640312 0.658347 -0.141131
v 0.668954 0.638509 -0.014474
v 0.678233 0.609808 0.109808
v 0.668954 0.572523 0.231790
v 0.640312 0.526375 0.351440
v 0.589491 0.470416 0.496159
v 0.419821 0.149994 0.952896
v 0.279881 0.140008 1.094407
v 0.139940 0.134553 1.157614
v 0.541603 0.282894 0.721637
v 0.406202 0.280539 0.912396
v 0.270801 0.279785 1.032805
v 0.135401 0.279566 1.091300
v 0.509902 0.402634 0.684884
v 0.382426 0.416824 0.827937
v 0.254951 0.426636 0.918611
v 0.127475 0.432378 0.962993
v 0.127475 0.954818 -0.232378
v 0.254951 0.923627 -0.226636
v 0.382426 0.868384 -0.216824
v 0.509902 0.782185 -0.202634
v 0.135401 0.984434 -0.079566
v 0.270801 0.948533 -0.079785
v 0.406202 0.884480 -0.080539
v 0.541603 0.782920 -0.082894
v 0.139940 0.984942 0.065447
v 0.279881 0.947039 0.059991
v 0.419821 0.879153 0.050006
v 0.559762 0.770574 0.033342
v 0.141421 0.960571 0.203794
v 0.282843 0.922833 0.193682
v 0.424264 0.855123 0.175540
v 0.565685 0.746410 0.146410
v 0.139940 0.912503 0.335792
v 0.279881 0.876951 0.321565
v 0.419821 0.813167 0.296270
v 0.559762 0.710803 0.256413
v 0.135401 0.839557 0.461123
v 0.270801 0.808356 0.443362
v 0.406202 0.752508 0.411989
v 0.541603 0.663376 0.363248
v 0.127475 0.737503 0.592918
v 0.254951 0.713362 0.573652
v 0.382426 0.670426 0.536114
v 0.509902 0.602870 0.476333
v 0.115470 0.595811 0.778852
v 0.230940 0.582971 0.754697
v 0.346410 0.560555 0.704670
v 0.461880 0.526599 0.625046
v 0.719796 0.539208 -0.047202
v 0.719250 0.326810 0.322504
v 0.748292 0.395207 0.193865
v 0.660200 0.253186 0.499444
v 0.556807 0.185571 0.733092
vn -0.9044 0.4077 0.1258
vn -0.9209 0.2973 0.2522
vn -0.8918 0.2665 0.3655
vn -0.8639 0.2646 0.4286
vn -0.7842 0.6109 -0.1091
vn -0.8337 0.5520 -0.0147
vn -0.8452 0.5162 0.1384
vn -0.8339 0.4701 0.2892
vn -0.8070 0.4324 0.4022
vn -0.7802 0.4257 0.4584
vn -0.7156 0.2813 0.6394
vn -0.4917 0.3669 0.7897
vn -0.2094 0.4123 0.8866
vn -0.0000 0.4188 0.9081
vn -0.8107 0.2912 0.5079
vn -0.6842 0.3792 0.6229
vn -0.4721 0.4702 0.7457
vn -0.2006 0.5218 0.8291
vn -0.0000 0.5341 0.8454
vn -0.7276 0.4525 0.5156
vn -0.5857 0.5500 0.5954
vn -0.3853 0.6389 0.6658
vn -0.1626 0.6870 0.7082
vn -0.0000 0.6984 0.7157
vn -0.0000 0.9807 -0.1957
vn -0.1623 0.9674 -0.1944
vn -0.3247 0.9264 -0.1905
vn -0.4874 0.8537 -0.1835
vn -0.6327 0.7520 -0.1848
vn -0.0000 0.9949 -0.1013
vn -0.1694 0.9804 -0.1011
vn -0.3392 0.9353 -0.1005
vn -0.5101 0.8543 -0.0995
vn -0.6747 0.7304 -0.1064
vn -0.0000 0.9965 0.0833
vn -0.1755 0.9811 0.0812
vn -0.3514 0.9332 0.0747
vn -0.5285 0.8466 0.0629
vn -0.6993 0.7138 0.0380
vn -0.0000 0.9659 0.2588
vn -0.1775 0.9506 0.2547
vn -0.3553 0.9029 0.2419
vn -0.5344 0.8164 0.2188
vn -0.7071 0.6830 0.1830
vn -0.0000 0.9047 0.4261
vn -0.1755 0.8903 0.4202
vn -0.3514 0.8456 0.4019
vn -0.5285 0.7646 0.3689
vn -0.6993 0.6372 0.3240
vn -0.0000 0.8257 0.5641
vn -0.1675 0.8145 0.5555
vn -0.3396 0.7763 0.5310
vn -0.5130 0.7037 0.4916
vn -0.6785 0.5889 0.4391
vn -0.0000 0.7874 0.6164
vn -0.1518 0.7797 0.6075
vn -0.3223 0.7465 0.5821
vn -0.4943 0.6782 0.5438
vn -0.6564 0.5683 0.4961
vn -0.0000 0.7703 0.6376
vn -0.1401 0.7625 0.6316
vn -0.3199 0.7273 0.6072
vn -0.4958 0.6577 0.5671
vn -0.6355 0.5717 0.5188
vn -0.8875 0.4606 -0.0152
vn -0.9183 0.1837 0.3506
vn -0.9469 0.2074 0.2456
vn -0.8907 0.1821 0.4165
vn -0.8358 0.2093 0.5077
vn 0.9044 0.4077 0.1258
vn 0.9209 0.2973 0.2522
vn 0.8918 0.2665 0.3655
vn 0.8639 0.2646 0.4286
vn 0.7842 0.6109 -0.1091
vn 0.8337 0.5520 -0.0147
vn 0.8452 0.5162 0.1384
vn 0.8339 0.4701 0.2892
vn 0.8070 0.4324 0.4022
vn 0.7802 0.4257 0.4584
vn 0.7156 0.2813 0.6394
vn 0.4917 0.3669 0.7897
vn 0.2094 0.4123 0.8866
vn 0.8107 0.2912 0.5079
vn 0.6842 0.3792 0.6229
vn 0.4721 0.4702 0.7457
vn 0.2006 0.5218 0.8291
vn 0.7276 0.4525 0.5156
vn 0.5857 0.5500 0.5954
vn 0.3853 0.6389 0.6658
vn 0.1626 0.6870 0.7082
vn 0.1623 0.9674 -0.1944
vn 0.3247 0.9264 -0.1905
vn 0.4874 0.8537 -0.1835
vn 0.6327 0.7520 -0.1848
vn 0.1694 0.9804 -0.1011
vn 0.3392 0.9353 -0.1005
vn 0.5101 0.8543 -0.0995
vn 0.6747 0.7304 -0.1064
vn 0.1755 0.9811 0.0812
vn 0.3514 0.9332 0.0747
vn 0.5285 0.8466 0.0629
vn 0.6993 0.7138 0.0380
vn 0.1775 0.9506 0.2547
vn 0.3553 0.9029 0.2419
vn 0.5344 0.8164 0.2188
vn 0.7071 0.6830 0.1830
vn 0.1755 0.8903 0.4202
vn 0.3514 0.8456 0.4019
vn 0.5285 0.7646 0.3689
vn 0.6993 0.6372 0.3240
vn 0.1675 0.8145 0.5555
vn 0.3396 0.7763 0.5310
vn 0.5130 0.7037 0.4916
vn 0.6785 0.5889 0.4391
vn 0.1518 0.7797 0.6075
vn 0.3223 0.7465 0.5821
vn 0.4943 0.6782 0.5438
vn 0.6564 0.5683 0.4961
vn 0.1401 0.7625 0.6316
vn 0.3199 0.7273 0.6072
vn 0.4958 0.6577 0.5671
vn 0.6355 0.5717 0.5188
vn 0.8875 0.4606 -0.0152
vn 0.9183 0.1837 0.3506
vn 0.9469 0.2074 0.2456
vn 0.8907 0.1821 0.4165
vn 0.8358 0.2093 0.5077
vt 0.000000 0.000000
s 1
usemtl Material
f 67/1/67 66/1/66 3/1/3 2/1/2
f 5/1/5 65/1/65 6/1/6
f 1/1/1 67/1/67 2/1/2
f 1/1/1 2/1/2 8/1/8 7/1/7
f 2/1/2 3/1/3 9/1/9 8/1/8
f 3/1/3 4/1/4 10/1/10 9/1/9
f 4/1/4 15/1/15 20/1/20 10/1/10
f 5/1/5 34/1/34 29/1/29
f 5/1/5 6/1/6 39/1/39 34/1/34
f 6/1/6 7/1/7 44/1/44 39/1/39
f 7/1/7 8/1/8 49/1/49 44/1/44
f 8/1/8 9/1/9 54/1/54 49/1/49
f 9/1/9 10/1/10 59/1/59 54/1/54
f 10/1/10 20/1/20 64/1/64 59/1/59
f 11/1/11 16/1/16 15/1/15 69/1/69
f 11/1/11 12/1/12 17/1/17 16/1/16
f 12/1/12 13/1/13 18/1/18 17/1/17
f 13/1/13 14/1/14 19/1/19 18/1/18
f 15/1/15 16/1/16 21/1/21 20/1/20
f 16/1/16 17/1/17 22/1/22 21/1/21
f 17/1/17 18/1/18 23/1/23 22/1/22
f 18/1/18 19/1/19 24/1/24 23/1/23
f 20/1/20 21/1/21 63/1/63 64/1/64
f 21/1/21 22/1/22 62/1/62 63/1/63
f 22/1/22 23/1/23 61/1/61 62/1/62
f 23/1/23 24/1/24 60/1/60 61/1/61
f 25/1/25 26/1/26 31/1/31 30/1/30
f 26/1/26 27/1/27 32/1/32 31/1/31
f 27/1/27 28/1/28 33/1/33 32/1/32
f 28/1/28 29/1/29 34/1/34 33/1/33
f 30/1/30 31/1/31 36/1/36 35/1/35
f 31/1/31 32/1/32 37/1/37 36/1/36
f 32/1/32 33/1/33 38/1/38 37/1/37
f 33/1/33 34/1/34 39/1/39 38/1/38
f 35/1/35 36/1/36 41/1/41 40/1/40
f 36/1/36 37/1/37 42/1/42 41/1/41
f 37/1/37 38/1/38 43/1/43 42/1/42
f 38/1/38 39/1/39 44/1/44 43/1/43
f 40/1/40 41/1/41 46/1/46 45/1/45
f 41/1/41 42/1/42 47/1/47 46/1/46
f 42/1/42 43/1/43 48/1/48 47/1/47
f 43/1/43 44/1/44 49/1/49 48/1/48
f 45/1/45 46/1/46 51/1/51 50/1/50
f 46/1/46 47/1/47 52/1/52 51/1/51
f 47/1/47 48/1/48 53/1/53 52/1/52
f 48/1/48 49/1/49 54/1/54 53/1/53
f 50/1/50 51/1/51 56/1/56 55/1/55
f 51/1/51 52/1/52 57/1/57 56/1/56
f 52/1/52 53/1/53 58/1/58 57/1/57
f 53/1/53 54/1/54 59/1/59 58/1/58
f 55/1/55 56/1/56 61/1/61 60/1/60
f 56/1/56 57/1/57 62/1/62 61/1/61
f 57/1/57 58/1/58 63/1/63 62/1/62
f 58/1/58 59/1/59 64/1/64 63/1/63
f 1/1/1 7/1/7 6/1/6 65/1/65
f 66/1/66 68/1/68 4/1/4 3/1/3
f 68/1/68 69/1/69 15/1/15 4/1/4
f 125/1/125 71/1/71 72/1/72 124/1/124
f 74/1/74 75/1/75 123/1/123
f 70/1/70 71/1/71 125/1/125
f 70/1/70 76/1/76 77/1/77 71/1/71
f 71/1/71 77/1/77 78/1/78 72/1/72
f 72/1/72 78/1/78 79/1/79 73/1/73
f 73/1/73 79/1/79 87/1/87 83/1/83
f 74/1/74 94/1/94 98/1/98
f 74/1/74 98/1/98 102/1/102 75/1/75
f 75/1/75 102/1/102 106/1/106 76/1/76
f 76/1/76 106/1/106 110/1/110 77/1/77
f 77/1/77 110/1/110 114/1/114 78/1/78
f 78/1/78 114/1/114 118/1/118 79/1/79
f 79/1/79 118/1/118 122/1/122 87/1/87
f 80/1/80 127/1/127 83/1/83 84/1/84
f 80/1/80 84/1/84 85/1/85 81/1/81
f 81/1/81 85/1/85 86/1/86 82/1/82
f 82/1/82 86/1/86 19/1/19 14/1/14
f 83/1/83 87/1/87 88/1/88 84/1/84
f 84/1/84 88/1/88 89/1/89 85/1/85
f 85/1/85 89/1/89 90/1/90 86/1/86
f 86/1/86 90/1/90 24/1/24 19/1/19
f 87/1/87 122/1/122 121/1/121 88/1/88
f 88/1/88 121/1/121 120/1/120 89/1/89
f 89/1/89 120/1/120 119/1/119 90/1/90
f 90/1/90 119/1/119 60/1/60 24/1/24
f 25/1/25 30/1/30 95/1/95 91/1/91
f 91/1/91 95/1/95 96/1/96 92/1/92
f 92/1/92 96/1/96 97/1/97 93/1/93
f 93/1/93 97/1/97 98/1/98 94/1/94
f 30/1/30 35/1/35 99/1/99 95/1/95
f 95/1/95 99/1/99 100/1/100 96/1/96
f 96/1/96 100/1/100 101/1/101 97/1/97
f 97/1/97 101/1/101 102/1/102 98/1/98
f 35/1/35 40/1/40 103/1/103 99/1/99
f 99/1/99 103/1/103 104/1/104 100/1/100
f 100/1/100 104/1/104 105/1/105 101/1/101
f 101/1/101 105/1/105 106/1/106 102/1/102
f 40/1/40 45/1/45 107/1/107 103/1/103
f 103/1/103 107/1/107 108/1/108 104/1/104
f 104/1/104 108/1/108 109/1/109 105/1/105
f 105/1/105 109/1/109 110/1/110 106/1/106
f 45/1/45 50/1/50 111/1/111 107/1/107
f 107/1/107 111/1/111 112/1/112 108/1/108
f 108/1/108 112/1/112 113/1/113 109/1/109
f 109/1/109 113/1/113 114/1/114 110/1/110
f 50/1/50 55/1/55 115/1/115 111/1/111
f 111/1/111 115/1/115 116/1/116 112/1/112
f 112/1/112 116/1/116 117/1/117 113/1/113
f 113/1/113 117/1/117 118/1/118 114/1/114
f 55/1/55 60/1/60 119/1/119 115/1/115
f 115/1/115 119/1/119 120/1/120 116/1/116
f 116/1/116 120/1/120 121/1/121 117/1/117
f 117/1/117 121/1/121 122/1/122 118/1/118
f 70/1/70 123/1/123 75/1/75 76/1/76
f 124/1/124 72/1/72 73/1/73 126/1/126
f 126/1/126 73/1/73 83/1/83 127/1/127
